<svg width="401" height="401" viewBox="0 0 401 401" fill="none" xmlns="http://www.w3.org/2000/svg">
<path d="M310.975 65.6293C291.095 52.8883 253.757 35.1347 217.885 51.5382C214.432 53.1211 210.498 50.6303 210.498 46.8282V13.8584C210.506 6.23859 205.33 0 199.006 0L181.757 0C175.433 0 170.258 6.23859 170.258 13.8584V48.7836C170.258 52.0813 167.27 54.5799 164.035 53.9126C149.47 50.9097 111.651 46.2385 75.4839 67.8408C70.5334 70.7971 73.4044 78.5565 79.0843 77.5168C95.9222 74.4363 118.083 72.318 133.059 78.2307C136.985 79.7748 137.552 85.1443 134.021 87.4566C123.383 94.4013 103.759 110.37 90.9019 139.732C88.7137 144.729 94.8592 149.206 99.0726 145.738C115.499 132.205 142.525 113.87 165.447 116.826C168.147 117.175 170.196 119.379 170.157 122.103C169.924 137.482 170.118 189.734 182.82 209.513C184.822 212.632 189.307 212.787 191.487 209.784C199.581 198.665 217.125 169.179 216.403 123.135C216.356 120.108 218.785 117.649 221.811 117.749C233.373 118.122 260.671 121.389 282.319 142.533C285.866 146.002 291.739 143.006 291.119 138.087C289.419 124.624 282.009 104.264 255.185 88.4731C251.111 86.0754 251.802 79.9765 256.387 78.8514C265.652 76.5779 281.621 74.413 307.941 75.2821C313.287 75.445 315.468 68.5081 310.975 65.6293Z" fill="#88C057"/>
<path d="M317.012 77.5168C316.29 77.0124 315.452 76.6943 314.575 76.5857C311.472 76.2054 308.36 75.8485 305.256 75.4295C304.147 75.3209 303.029 75.2355 301.927 75.1269C279.316 74.7544 265.124 76.7253 256.566 78.8049C251.918 79.9377 251.08 86.0289 255.208 88.4576C282.032 104.248 289.435 124.609 291.134 138.064C291.755 142.983 285.881 145.978 282.335 142.51C260.686 121.373 233.388 118.106 221.827 117.726C218.801 117.625 216.364 120.085 216.418 123.111C217.132 169.156 199.596 198.642 191.503 209.761C189.315 212.764 184.838 212.609 182.836 209.489C170.133 189.71 169.939 137.458 170.172 122.079C170.211 119.363 168.163 117.152 165.462 116.803C142.541 113.839 115.515 132.182 99.088 145.714C94.8746 149.183 88.7292 144.706 90.9173 139.709C103.759 110.386 123.352 94.4246 133.998 87.4644C137.544 85.1443 136.954 79.7515 133.005 78.2307C130.126 77.1211 126.983 76.2986 123.67 75.7166C123.08 75.608 122.452 75.6002 121.854 75.6856C103.038 78.2462 84.5546 81.8233 66.6148 86.6341C65.8233 86.8436 65.0862 87.2239 64.4576 87.7515C24.8612 120.698 0 168.132 0 220.872C0 320.356 88.4033 401 197.447 401C306.49 401 394.893 320.356 394.893 220.872C394.901 162.39 364.344 110.417 317.012 77.5168Z" fill="#D13834"/>
<path d="M41.8854 268.756C39.2317 268.756 36.6478 267.398 35.2045 264.954C29.4005 255.154 25.5984 244.329 23.899 232.783C23.2783 228.539 26.2114 224.597 30.448 223.976C34.7623 223.309 38.6342 226.288 39.255 230.525C40.6362 239.937 43.8563 249.109 48.5585 257.047C50.7389 260.733 49.5285 265.497 45.835 267.677C44.5935 268.407 43.2278 268.756 41.8854 268.756Z" fill="#ED7161"/>
<path d="M32.5508 207.006C32.3723 207.006 32.1861 206.999 32.0076 206.983C27.7244 206.688 24.5043 202.979 24.7991 198.711C25.5285 188.415 27.6391 178.413 31.092 168.962C32.5586 164.935 36.997 162.886 41.0474 164.337C45.0745 165.804 47.1385 170.265 45.672 174.292C42.7157 182.37 40.9077 190.944 40.287 199.782C39.9999 203.879 36.5935 207.006 32.5508 207.006Z" fill="#ED7161"/>
</svg>
