<?xml version="1.0" encoding="UTF-8"?>
<!DOCTYPE svg PUBLIC "-//W3C//DTD SVG 1.1//EN" "http://www.w3.org/Graphics/SVG/1.1/DTD/svg11.dtd">
<svg xmlns="http://www.w3.org/2000/svg" version="1.1" width="569px" height="568px" style="shape-rendering:geometricPrecision; text-rendering:geometricPrecision; image-rendering:optimizeQuality; fill-rule:evenodd; clip-rule:evenodd" xmlns:xlink="http://www.w3.org/1999/xlink">
<g><path style="opacity:1" fill="#fefffe" d="M -0.5,-0.5 C 89.1667,-0.5 178.833,-0.5 268.5,-0.5C 171.753,7.77151 96.5863,52.1048 43,132.5C 17.3361,174.323 2.83614,219.656 -0.5,268.5C -0.5,178.833 -0.5,89.1667 -0.5,-0.5 Z"/></g>
<g><path style="opacity:1" fill="#177d36" d="M 268.5,-0.5 C 278.833,-0.5 289.167,-0.5 299.5,-0.5C 397.755,7.85702 473.588,53.1904 527,135.5C 551.218,176.318 565.052,220.318 568.5,267.5C 568.5,278.5 568.5,289.5 568.5,300.5C 560.594,393.173 518.927,466.34 443.5,520C 403.873,546.042 360.54,561.875 313.5,567.5C 293.833,567.5 274.167,567.5 254.5,567.5C 162.406,555.177 91.2397,510.177 41,432.5C 16.5726,391.389 2.73928,347.056 -0.5,299.5C -0.5,289.167 -0.5,278.833 -0.5,268.5C 2.83614,219.656 17.3361,174.323 43,132.5C 96.5863,52.1048 171.753,7.77151 268.5,-0.5 Z"/></g>
<g><path style="opacity:1" fill="#fefefe" d="M 299.5,-0.5 C 389.167,-0.5 478.833,-0.5 568.5,-0.5C 568.5,88.8333 568.5,178.167 568.5,267.5C 565.052,220.318 551.218,176.318 527,135.5C 473.588,53.1904 397.755,7.85702 299.5,-0.5 Z"/></g>
<g><path style="opacity:1" fill="#fefefe" d="M 269.5,22.5 C 372.46,21.0533 451.96,63.0533 508,148.5C 552.242,226.733 557.242,307.4 523,390.5C 482.942,473.802 417.442,524.302 326.5,542C 221.572,555.263 136.738,520.43 72,437.5C 16.9643,355.741 7.96425,269.074 45,177.5C 80.4311,102.74 137.931,53.9062 217.5,31C 234.758,26.7994 252.091,23.9661 269.5,22.5 Z"/></g>
<g><path style="opacity:1" fill="#88bf57" d="M 395.5,146.5 C 379.345,145.775 363.345,146.941 347.5,150C 343.787,151.691 342.621,154.525 344,158.5C 362.649,168.809 374.982,184.143 381,204.5C 382.227,208.591 381.394,212.091 378.5,215C 376.365,215.635 374.365,215.301 372.5,214C 354.859,197.352 333.859,189.352 309.5,190C 308.667,190.833 307.833,191.667 307,192.5C 307.833,224.845 299.5,254.512 282,281.5C 278.626,284.405 275.626,284.072 273,280.5C 266.534,264.84 262.867,248.507 262,231.5C 261.139,217.843 260.473,204.176 260,190.5C 259.5,190 259,189.5 258.5,189C 247.769,187.44 237.435,188.774 227.5,193C 213.312,199.587 200.312,207.921 188.5,218C 186.08,218.687 183.913,218.187 182,216.5C 181.348,213.406 181.682,210.406 183,207.5C 192.661,186.864 206.994,170.197 226,157.5C 226.944,154.653 226.444,152.153 224.5,150C 221.223,148.857 217.89,148.023 214.5,147.5C 199.626,146.161 184.626,146.494 169.5,148.5C 164.823,148.499 162.99,146.166 164,141.5C 183.257,128.529 204.59,122.195 228,122.5C 236.797,122.366 245.464,123.366 254,125.5C 256.704,125.815 258.704,124.815 260,122.5C 260.333,108.833 260.667,95.1667 261,81.5C 264.363,72.3442 270.863,69.0109 280.5,71.5C 289.204,69.4043 295.704,72.071 300,79.5C 300.333,92.8333 300.667,106.167 301,119.5C 302.334,123.104 304.834,124.271 308.5,123C 325.32,115.842 342.653,114.509 360.5,119C 375.79,123.201 389.957,129.701 403,138.5C 404.5,144.835 402,147.501 395.5,146.5 Z"/></g>
<g><path style="opacity:1" fill="#d13834" d="M 395.5,146.5 C 398.641,147.321 401.975,147.821 405.5,148C 467.541,191.263 493.041,250.43 482,325.5C 467.322,384.512 432.488,427.012 377.5,453C 311.985,481.155 247.652,478.821 184.5,446C 112.89,403.275 82.7238,340.442 94,257.5C 103.508,217.688 124.008,184.855 155.5,159C 174.719,152.923 194.385,149.09 214.5,147.5C 217.89,148.023 221.223,148.857 224.5,150C 226.444,152.153 226.944,154.653 226,157.5C 206.994,170.197 192.661,186.864 183,207.5C 181.682,210.406 181.348,213.406 182,216.5C 183.913,218.187 186.08,218.687 188.5,218C 200.312,207.921 213.312,199.587 227.5,193C 237.435,188.774 247.769,187.44 258.5,189C 259,189.5 259.5,190 260,190.5C 260.473,204.176 261.139,217.843 262,231.5C 262.867,248.507 266.534,264.84 273,280.5C 275.626,284.072 278.626,284.405 282,281.5C 299.5,254.512 307.833,224.845 307,192.5C 307.833,191.667 308.667,190.833 309.5,190C 333.859,189.352 354.859,197.352 372.5,214C 374.365,215.301 376.365,215.635 378.5,215C 381.394,212.091 382.227,208.591 381,204.5C 374.982,184.143 362.649,168.809 344,158.5C 342.621,154.525 343.787,151.691 347.5,150C 363.345,146.941 379.345,145.775 395.5,146.5 Z"/></g>
<g><path style="opacity:1" fill="#ec6f60" d="M 125.5,235.5 C 131.398,234.603 135.064,236.936 136.5,242.5C 133.367,252.961 131.201,263.627 130,274.5C 125.959,279.313 121.625,279.646 117,275.5C 115.953,272.961 115.453,270.295 115.5,267.5C 115.926,259.607 117.426,251.94 120,244.5C 120.837,240.843 122.67,237.843 125.5,235.5 Z"/></g>
<g><path style="opacity:1" fill="#ec6f60" d="M 118.5,295.5 C 122.803,294.796 126.303,296.13 129,299.5C 131.345,311.036 135.179,322.036 140.5,332.5C 138.383,339.73 134.049,341.73 127.5,338.5C 119.616,326.681 115.449,313.681 115,299.5C 116.376,298.295 117.542,296.962 118.5,295.5 Z"/></g>
<g><path style="opacity:1" fill="#fefffe" d="M -0.5,299.5 C 2.73928,347.056 16.5726,391.389 41,432.5C 91.2397,510.177 162.406,555.177 254.5,567.5C 169.5,567.5 84.5,567.5 -0.5,567.5C -0.5,478.167 -0.5,388.833 -0.5,299.5 Z"/></g>
<g><path style="opacity:1" fill="#fefefe" d="M 568.5,300.5 C 568.5,389.5 568.5,478.5 568.5,567.5C 483.5,567.5 398.5,567.5 313.5,567.5C 360.54,561.875 403.873,546.042 443.5,520C 518.927,466.34 560.594,393.173 568.5,300.5 Z"/></g>
</svg>
