<svg width="143" height="143" viewBox="0 0 143 143" fill="none" xmlns="http://www.w3.org/2000/svg">
<path d="M142.445 71.2225C142.445 110.558 110.558 142.445 71.2225 142.445C31.8874 142.445 0 110.558 0 71.2225C0 31.8874 31.8874 0 71.2225 0C110.558 0 142.445 31.8874 142.445 71.2225Z" fill="#D9D9D9"/>
<path d="M99.3254 36.5301C94.3183 33.321 84.9139 28.8494 75.8788 32.9809C75.0091 33.3796 74.0183 32.7523 74.0183 31.7946V23.4905C74.0202 21.5713 72.7167 20 71.1238 20H66.7793C65.1865 20 63.8829 21.5713 63.8829 23.4905V32.2871C63.8829 33.1177 63.1305 33.7471 62.3155 33.579C58.6471 32.8226 49.1215 31.6461 40.0122 37.0871C38.7653 37.8317 39.4884 39.7861 40.919 39.5242C45.16 38.7483 50.7417 38.2147 54.5136 39.704C55.5026 40.0929 55.6452 41.4453 54.756 42.0277C52.0765 43.7769 47.1339 47.799 43.8955 55.1943C43.3444 56.4529 44.8923 57.5806 45.9535 56.707C50.0909 53.2986 56.898 48.6804 62.6712 49.425C63.3513 49.513 63.8673 50.068 63.8575 50.754C63.7989 54.6276 63.8477 67.7883 67.047 72.77C67.5513 73.5557 68.6809 73.5947 69.2301 72.8384C71.2685 70.0378 75.6873 62.6112 75.5055 51.0139C75.4938 50.2517 76.1055 49.6322 76.8677 49.6576C79.7798 49.7514 86.6552 50.5742 92.1079 55.8999C93.0011 56.7735 94.4805 56.0191 94.3242 54.78C93.8962 51.3892 92.0298 46.2609 85.2735 42.2838C84.2475 41.6798 84.4214 40.1437 85.5764 39.8603C87.91 39.2877 91.932 38.7424 98.5613 38.9613C99.9078 39.0024 100.457 37.2552 99.3254 36.5301Z" fill="black" fill-opacity="0.25"/>
<path d="M100.846 39.5241C100.664 39.397 100.453 39.3169 100.232 39.2895C99.4504 39.1938 98.6667 39.1039 97.885 38.9983C97.6055 38.971 97.3241 38.9495 97.0466 38.9221C91.3515 38.8283 87.777 39.3247 85.6213 39.8485C84.4506 40.1338 84.2396 41.668 85.2793 42.2797C92.0356 46.2569 93.9 51.3852 94.328 54.774C94.4844 56.0131 93.0049 56.7675 92.1118 55.8939C86.6591 50.5702 79.7836 49.7474 76.8716 49.6516C76.1094 49.6262 75.4957 50.2458 75.5094 51.008C75.6892 62.6052 71.2723 70.0318 69.2339 72.8324C68.6828 73.5888 67.5551 73.5497 67.0509 72.764C63.8516 67.7823 63.8027 54.6216 63.8613 50.748C63.8711 50.064 63.3552 49.507 62.675 49.4191C56.9018 48.6725 50.0947 53.2926 45.9573 56.701C44.8961 57.5747 43.3482 56.447 43.8994 55.1884C47.1339 47.8028 52.0687 43.7827 54.7501 42.0296C55.6432 41.4452 55.4947 40.0869 54.4999 39.7039C53.7748 39.4244 52.9833 39.2172 52.1488 39.0707C52.0002 39.0433 51.8419 39.0413 51.6915 39.0628C46.9521 39.7078 42.2968 40.6087 37.7783 41.8205C37.5789 41.8732 37.3933 41.969 37.235 42.1019C27.2618 50.4002 21 62.3472 21 75.6311C21 100.688 43.2662 121 70.731 121C98.1957 121 120.462 100.688 120.462 75.6311C120.464 60.901 112.768 47.8106 100.846 39.5241Z" fill="black" fill-opacity="0.6"/>
<path d="M31.5496 87.6919C30.8813 87.6919 30.2304 87.3499 29.8669 86.7342C28.4051 84.2659 27.4474 81.5395 27.0194 78.6314C26.8631 77.5624 27.6018 76.5695 28.6689 76.4132C29.7555 76.2451 30.7308 76.9956 30.8871 78.0627C31.235 80.4333 32.0461 82.7434 33.2304 84.7427C33.7796 85.6711 33.4747 86.871 32.5444 87.4202C32.2317 87.6039 31.8878 87.6919 31.5496 87.6919Z" fill="black" fill-opacity="0.8"/>
<path d="M29.1986 72.1388C29.1536 72.1388 29.1067 72.1369 29.0618 72.133C27.983 72.0587 27.1719 71.1245 27.2462 70.0496C27.4299 67.4561 27.9615 64.937 28.8312 62.5565C29.2005 61.5422 30.3184 61.0263 31.3386 61.3917C32.3529 61.7611 32.8728 62.8849 32.5034 63.8992C31.7588 65.9337 31.3035 68.0933 31.1471 70.3193C31.0748 71.3512 30.2168 72.1388 29.1986 72.1388Z" fill="black" fill-opacity="0.8"/>
</svg>
