<svg width="750" height="400" viewBox="0 0 1129 626" fill="none" xmlns="http://www.w3.org/2000/svg">
<rect width="1129" height="626" rx="30" fill="#D9D9D9"/>
<rect x="84" y="148" width="65" height="422" fill="#88C057"/>
<rect x="294" y="442" width="65" height="128" fill="#88C057"/>
<rect x="154" y="328" width="65" height="242" fill="#88C057"/>
<rect x="224" y="249" width="65" height="325" fill="#88C057"/>
<rect x="364" y="51" width="65" height="519" fill="#88C057"/>
<rect x="574" y="366" width="65" height="204" fill="#88C057"/>
<rect x="434" y="328" width="65" height="242" fill="#88C057"/>
<rect x="504" y="193" width="65" height="381" fill="#88C057"/>
<rect x="924" y="324" width="65" height="242" fill="#88C057"/>
<rect x="994" y="245" width="65" height="325" fill="#88C057"/>
<rect x="644" y="72" width="65" height="498" fill="#88C057"/>
<rect x="854" y="442" width="65" height="128" fill="#88C057"/>
<rect x="714" y="328" width="65" height="242" fill="#88C057"/>
<rect x="784" y="249" width="65" height="325" fill="#88C057"/>
<path d="M84 72L69.5662 97L98.4337 97L84 72ZM86.5 574L86.5 94.5L81.5 94.5L81.5 574L86.5 574Z" fill="black" fill-opacity="0.8"/>
<path d="M1078 570L1053 555.566V584.434L1078 570ZM84 572.5H1055.5V567.5H84V572.5Z" fill="black" fill-opacity="0.8"/>
</svg>
