<svg width="488" height="488" viewBox="0 0 488 488" fill="none" xmlns="http://www.w3.org/2000/svg">
<path d="M224.085 110C212.332 110 201.12 119.196 201.12 131.914V150.677C201.12 163.395 212.336 172.741 224.085 172.741H288.177C299.928 172.741 311.292 163.395 311.292 150.677V131.914C311.292 119.195 299.926 110 288.177 110H224.085ZM224.085 130.263H288.177C290.246 130.263 290.878 130.8 290.878 131.914V150.677C290.878 151.776 290.244 152.476 288.177 152.476H224.085C222.015 152.476 221.383 151.783 221.383 150.677V131.914C221.383 130.815 222.018 130.263 224.085 130.263Z" fill="#A97161"/>
<path d="M256.206 153.377C166.885 153.377 95 225.255 95 314.583C95 402.987 166.805 475.789 256.206 475.789C344.685 475.789 417.261 403.068 417.261 314.583C417.261 225.176 344.604 153.377 256.206 153.377Z" fill="#B68666"/>
<path d="M256.206 194.803C189.543 194.803 136.427 248.923 136.427 314.582C136.427 380.24 189.543 434.36 256.206 434.36C321.971 434.36 375.834 380.351 375.834 314.582C375.834 248.812 321.971 194.803 256.206 194.803Z" fill="#C9C9C9"/>
<path d="M256.066 194.667C254.728 194.683 253.406 194.962 252.175 195.49C250.945 196.018 249.832 196.784 248.898 197.743C247.965 198.702 247.23 199.837 246.736 201.081C246.241 202.325 245.998 203.654 246.019 204.992V234.579C245.892 235.985 246.06 237.402 246.512 238.74C246.964 240.078 247.689 241.307 248.641 242.349C249.594 243.391 250.753 244.223 252.045 244.792C253.337 245.362 254.734 245.656 256.146 245.656C257.558 245.656 258.954 245.362 260.246 244.792C261.538 244.223 262.697 243.391 263.65 242.349C264.603 241.307 265.328 240.078 265.779 238.74C266.231 237.402 266.399 235.985 266.273 234.579V204.992C266.294 203.641 266.045 202.298 265.541 201.044C265.037 199.789 264.288 198.648 263.337 197.687C262.387 196.725 261.254 195.963 260.006 195.444C258.757 194.926 257.418 194.662 256.066 194.667ZM146.616 304.395C143.918 304.409 141.334 305.49 139.431 307.402C137.528 309.315 136.459 311.904 136.459 314.602C136.459 317.3 137.528 319.888 139.431 321.801C141.334 323.714 143.918 324.795 146.616 324.808H176.202C178.901 324.795 181.484 323.714 183.387 321.801C185.29 319.888 186.359 317.3 186.359 314.602C186.359 311.904 185.29 309.315 183.387 307.402C181.484 305.49 178.901 304.409 176.202 304.395H146.616ZM336.049 304.395C333.351 304.409 330.768 305.49 328.865 307.402C326.961 309.315 325.893 311.904 325.893 314.602C325.893 317.3 326.961 319.888 328.865 321.801C330.768 323.714 333.351 324.795 336.049 324.808H364.723C367.421 324.795 370.004 323.714 371.907 321.801C373.81 319.888 374.879 317.3 374.879 314.602C374.879 311.904 373.81 309.315 371.907 307.402C370.004 305.49 367.421 304.409 364.723 304.395H336.049ZM256.066 384.22C254.724 384.235 253.399 384.516 252.166 385.047C250.933 385.577 249.818 386.346 248.884 387.31C247.95 388.273 247.216 389.412 246.724 390.661C246.232 391.91 245.993 393.243 246.019 394.585V424.171C245.892 425.578 246.06 426.995 246.512 428.332C246.964 429.67 247.689 430.899 248.641 431.941C249.594 432.983 250.753 433.816 252.045 434.385C253.337 434.954 254.734 435.248 256.146 435.248C257.558 435.248 258.954 434.954 260.246 434.385C261.538 433.816 262.697 432.983 263.65 431.941C264.603 430.899 265.328 429.67 265.779 428.332C266.231 426.995 266.399 425.578 266.273 424.171V394.585C266.299 393.23 266.054 391.883 265.553 390.624C265.051 389.365 264.303 388.219 263.352 387.253C262.401 386.288 261.267 385.522 260.015 385.001C258.764 384.48 257.422 384.214 256.066 384.22Z" fill="black"/>
<path d="M256.066 252.884C254.724 252.9 253.399 253.181 252.166 253.711C250.933 254.242 249.818 255.011 248.884 255.975C247.95 256.938 247.216 258.077 246.724 259.326C246.232 260.574 245.993 261.908 246.019 263.25V311.065C245.768 312.35 245.768 313.671 246.019 314.957C246.173 316.737 246.794 318.446 247.819 319.91C248.844 321.374 250.236 322.542 251.857 323.297L289.664 361.104C290.582 362.163 291.708 363.02 292.973 363.623C294.237 364.226 295.613 364.561 297.013 364.607C298.414 364.653 299.808 364.409 301.11 363.891C302.412 363.373 303.592 362.591 304.577 361.595C305.562 360.598 306.331 359.409 306.835 358.102C307.339 356.795 307.567 355.398 307.506 353.998C307.444 352.598 307.094 351.226 306.477 349.968C305.86 348.71 304.99 347.594 303.921 346.688L266.273 309.039V263.25C266.299 261.895 266.054 260.548 265.553 259.289C265.051 258.03 264.303 256.884 263.352 255.918C262.401 254.952 261.267 254.187 260.015 253.666C258.764 253.145 257.422 252.879 256.066 252.884Z" fill="#D03636"/>
</svg>
